<svg width="32" height="32" viewBox="0 0 32 32" fill="none" xmlns="http://www.w3.org/2000/svg">
<path opacity="0.2" d="M28 13L22 19V7L28 13Z" fill="white"/>
<path d="M28.7075 12.2926L22.7075 6.29256C22.5676 6.15254 22.3894 6.05718 22.1953 6.01853C22.0012 5.97988 21.8 5.99968 21.6172 6.07543C21.4344 6.15119 21.2782 6.27948 21.1683 6.44407C21.0584 6.60867 20.9998 6.80216 21 7.00006V12.0001H16C12.5533 12.0037 9.24882 13.3745 6.81163 15.8117C4.37445 18.2489 3.00364 21.5534 3 25.0001C3 25.2653 3.10536 25.5196 3.29289 25.7072C3.48043 25.8947 3.73478 26.0001 4 26.0001C4.26522 26.0001 4.51957 25.8947 4.70711 25.7072C4.89464 25.5196 5 25.2653 5 25.0001C5.00331 22.0837 6.1633 19.2877 8.22548 17.2255C10.2877 15.1634 13.0836 14.0034 16 14.0001H21V19.0001C20.9998 19.198 21.0584 19.3914 21.1683 19.556C21.2782 19.7206 21.4344 19.8489 21.6172 19.9247C21.8 20.0004 22.0012 20.0202 22.1953 19.9816C22.3894 19.9429 22.5676 19.8476 22.7075 19.7076L28.7075 13.7076C28.8005 13.6147 28.8742 13.5044 28.9246 13.383C28.9749 13.2616 29.0008 13.1315 29.0008 13.0001C29.0008 12.8686 28.9749 12.7385 28.9246 12.6171C28.8742 12.4957 28.8005 12.3854 28.7075 12.2926ZM23 16.5863V9.4138L26.5863 13.0001L23 16.5863Z" fill="white"/>
</svg>
