<svg width="710" height="192" viewBox="0 0 710 192" fill="none" xmlns="http://www.w3.org/2000/svg">
<path d="M629.26 90.0063C627.949 92.2196 633.113 95.0887 651.23 102.303C670.412 109.926 674.921 110.91 675.495 107.877C676.232 103.696 631.474 86.4813 629.26 90.0063Z" fill="#016680"/>
<path d="M655.984 2.86656C649.098 -0.576388 647.623 0.161375 635.572 13.0315C623.112 26.3115 621.308 29.1807 623.604 31.7219C627.785 36.3125 632.211 33.8533 648.442 18.196C660.411 6.63743 661.067 5.4078 655.984 2.86656Z" fill="#016680"/>
<path d="M682.217 45.5759C677.298 43.0347 675.003 43.1167 666.231 46.0678C640.245 54.9211 620.981 59.1838 630.654 63.9384C634.589 65.9058 639.589 64.7581 670.33 55.413C687.299 50.1666 688.775 49.0189 682.217 45.5759Z" fill="#016680"/>
<path d="M11.4205 97V49.32H31.5165C34.6738 49.32 37.3618 49.8747 39.5805 50.984C41.8418 52.0507 43.5698 53.5867 44.7645 55.592C46.0018 57.5547 46.6205 59.944 46.6205 62.76C46.6205 64.936 46.0232 66.984 44.8285 68.904C43.6765 70.7813 41.8205 72.3387 39.2605 73.576V69.544C41.6072 70.44 43.4632 71.5493 44.8285 72.872C46.1938 74.1947 47.1538 75.6667 47.7085 77.288C48.2632 78.9093 48.5405 80.616 48.5405 82.408C48.5405 86.9733 47.0258 90.5573 43.9965 93.16C41.0098 95.72 36.8498 97 31.5165 97H11.4205ZM20.1245 89.32H32.4125C34.6738 89.32 36.4658 88.7013 37.7885 87.464C39.1538 86.184 39.8365 84.4987 39.8365 82.408C39.8365 80.3173 39.1538 78.632 37.7885 77.352C36.4658 76.072 34.6738 75.432 32.4125 75.432H20.1245V89.32ZM20.1245 67.816H31.9645C33.7565 67.816 35.1858 67.304 36.2525 66.28C37.3192 65.2133 37.8525 63.848 37.8525 62.184C37.8525 60.52 37.3192 59.1973 36.2525 58.216C35.1858 57.2347 33.7565 56.744 31.9645 56.744H20.1245V67.816ZM54.9665 97V62.184H62.8385V69.928L62.1985 68.776C63.0092 66.1733 64.2678 64.36 65.9745 63.336C67.7238 62.312 69.8145 61.8 72.2465 61.8H74.2945V69.224H71.2865C68.8972 69.224 66.9772 69.9707 65.5265 71.464C64.0758 72.9147 63.3505 74.9627 63.3505 77.608V97H54.9665ZM78.904 97V62.184H87.288V97H78.904ZM78.904 58.28V49.32H87.288V58.28H78.904ZM95.029 97V62.184H102.901V69.032L102.261 67.816C103.072 65.7253 104.394 64.1467 106.229 63.08C108.106 61.9707 110.282 61.416 112.757 61.416C115.317 61.416 117.578 61.9707 119.541 63.08C121.546 64.1893 123.104 65.7467 124.213 67.752C125.322 69.7147 125.877 71.9973 125.877 74.6V97H117.493V76.584C117.493 75.048 117.194 73.7253 116.597 72.616C116 71.5067 115.168 70.6533 114.101 70.056C113.077 69.416 111.861 69.096 110.453 69.096C109.088 69.096 107.872 69.416 106.805 70.056C105.738 70.6533 104.906 71.5067 104.309 72.616C103.712 73.7253 103.413 75.048 103.413 76.584V97H95.029ZM149.863 111.08C147.26 111.08 144.849 110.653 142.631 109.8C140.412 108.947 138.492 107.752 136.871 106.216C135.292 104.723 134.14 102.952 133.415 100.904L141.223 97.96C141.735 99.5813 142.737 100.883 144.231 101.864C145.767 102.888 147.644 103.4 149.863 103.4C151.569 103.4 153.063 103.08 154.343 102.44C155.665 101.8 156.689 100.861 157.415 99.624C158.14 98.4293 158.503 96.9787 158.503 95.272V87.336L160.103 89.256C158.908 91.3467 157.308 92.9253 155.303 93.992C153.297 95.0587 151.015 95.592 148.455 95.592C145.212 95.592 142.311 94.8453 139.751 93.352C137.191 91.8587 135.185 89.8107 133.735 87.208C132.284 84.6053 131.559 81.6827 131.559 78.44C131.559 75.1547 132.284 72.232 133.735 69.672C135.185 67.112 137.169 65.1067 139.687 63.656C142.204 62.1627 145.063 61.416 148.263 61.416C150.865 61.416 153.148 61.9707 155.111 63.08C157.116 64.1467 158.78 65.704 160.103 67.752L158.951 69.864V62.184H166.887V95.272C166.887 98.3013 166.14 101.011 164.647 103.4C163.196 105.789 161.191 107.667 158.631 109.032C156.113 110.397 153.191 111.08 149.863 111.08ZM149.479 87.848C151.271 87.848 152.828 87.464 154.151 86.696C155.516 85.8853 156.583 84.776 157.351 83.368C158.119 81.96 158.503 80.3387 158.503 78.504C158.503 76.712 158.097 75.112 157.287 73.704C156.519 72.2533 155.452 71.1227 154.087 70.312C152.764 69.5013 151.228 69.096 149.479 69.096C147.729 69.096 146.151 69.5013 144.743 70.312C143.335 71.1227 142.225 72.2533 141.415 73.704C140.647 75.112 140.263 76.712 140.263 78.504C140.263 80.296 140.647 81.896 141.415 83.304C142.225 84.712 143.313 85.8213 144.679 86.632C146.087 87.4427 147.687 87.848 149.479 87.848ZM198.956 97V75.88L182.892 49.32H192.812L205.1 70.056H201.58L213.804 49.32H223.724L207.724 75.816V97H198.956ZM239.491 97.768C236.077 97.768 232.963 96.9787 230.147 95.4C227.373 93.8213 225.155 91.6667 223.491 88.936C221.869 86.2053 221.059 83.0907 221.059 79.592C221.059 76.0933 221.869 72.9787 223.491 70.248C225.155 67.5173 227.373 65.3627 230.147 63.784C232.92 62.2053 236.035 61.416 239.491 61.416C242.904 61.416 245.997 62.2053 248.771 63.784C251.544 65.3627 253.741 67.5173 255.363 70.248C257.027 72.936 257.859 76.0507 257.859 79.592C257.859 83.0907 257.027 86.2053 255.363 88.936C253.699 91.6667 251.48 93.8213 248.707 95.4C245.933 96.9787 242.861 97.768 239.491 97.768ZM239.491 90.088C241.368 90.088 243.011 89.64 244.419 88.744C245.869 87.848 247 86.6107 247.811 85.032C248.664 83.4107 249.091 81.5973 249.091 79.592C249.091 77.544 248.664 75.752 247.811 74.216C247 72.6373 245.869 71.4 244.419 70.504C243.011 69.5653 241.368 69.096 239.491 69.096C237.571 69.096 235.885 69.5653 234.435 70.504C232.984 71.4 231.832 72.6373 230.979 74.216C230.168 75.752 229.763 77.544 229.763 79.592C229.763 81.5973 230.168 83.4107 230.979 85.032C231.832 86.6107 232.984 87.848 234.435 88.744C235.885 89.64 237.571 90.088 239.491 90.088ZM276.633 97.768C273.945 97.768 271.598 97.1707 269.593 95.976C267.63 94.7813 266.115 93.1173 265.049 90.984C264.025 88.8507 263.513 86.3547 263.513 83.496V62.184H271.897V82.792C271.897 84.2427 272.174 85.5227 272.729 86.632C273.326 87.6987 274.158 88.552 275.225 89.192C276.334 89.7893 277.571 90.088 278.937 90.088C280.302 90.088 281.518 89.7893 282.585 89.192C283.651 88.552 284.483 87.6773 285.081 86.568C285.678 85.4587 285.977 84.136 285.977 82.6V62.184H294.361V97H286.425V90.152L287.129 91.368C286.318 93.5013 284.974 95.1013 283.097 96.168C281.262 97.2347 279.107 97.768 276.633 97.768ZM302.154 97V62.184H310.026V69.928L309.386 68.776C310.197 66.1733 311.455 64.36 313.162 63.336C314.911 62.312 317.002 61.8 319.434 61.8H321.482V69.224H318.474C316.085 69.224 314.165 69.9707 312.714 71.464C311.263 72.9147 310.538 74.9627 310.538 77.608V97H302.154ZM338.171 97V49.32H346.875V89.32H367.291V97H338.171ZM388.729 97.768C385.145 97.768 382.009 96.9573 379.321 95.336C376.633 93.7147 374.542 91.5173 373.049 88.744C371.555 85.9707 370.809 82.8987 370.809 79.528C370.809 76.0293 371.555 72.936 373.049 70.248C374.585 67.5173 376.654 65.3627 379.257 63.784C381.902 62.2053 384.846 61.416 388.089 61.416C390.819 61.416 393.209 61.864 395.257 62.76C397.347 63.656 399.118 64.8933 400.569 66.472C402.019 68.0507 403.129 69.864 403.897 71.912C404.665 73.9173 405.049 76.0933 405.049 78.44C405.049 79.0373 405.006 79.656 404.921 80.296C404.878 80.936 404.771 81.4907 404.601 81.96H377.72V75.56H399.865L395.897 78.568C396.281 76.6053 396.174 74.856 395.577 73.32C395.022 71.784 394.083 70.568 392.761 69.672C391.481 68.776 389.923 68.328 388.089 68.328C386.339 68.328 384.782 68.776 383.417 69.672C382.051 70.5253 381.006 71.8053 380.281 73.512C379.598 75.176 379.342 77.2027 379.513 79.592C379.342 81.7253 379.619 83.624 380.345 85.288C381.113 86.9093 382.222 88.168 383.673 89.064C385.166 89.96 386.873 90.408 388.793 90.408C390.713 90.408 392.334 90.0027 393.657 89.192C395.022 88.3813 396.089 87.2933 396.857 85.928L403.641 89.256C402.958 90.92 401.891 92.392 400.441 93.672C398.99 94.952 397.262 95.9547 395.257 96.68C393.294 97.4053 391.118 97.768 388.729 97.768ZM421.839 97.768C419.407 97.768 417.295 97.3627 415.503 96.552C413.711 95.7413 412.324 94.5893 411.343 93.096C410.362 91.56 409.871 89.7893 409.871 87.784C409.871 85.864 410.298 84.1573 411.151 82.664C412.004 81.128 413.327 79.848 415.119 78.824C416.911 77.8 419.172 77.0747 421.903 76.648L433.295 74.792V81.192L423.503 82.856C421.839 83.1547 420.602 83.688 419.791 84.456C418.98 85.224 418.575 86.2267 418.575 87.464C418.575 88.6587 419.023 89.6187 419.919 90.344C420.858 91.0267 422.01 91.368 423.375 91.368C425.124 91.368 426.66 91.0053 427.983 90.28C429.348 89.512 430.394 88.4667 431.119 87.144C431.887 85.8213 432.271 84.3707 432.271 82.792V73.832C432.271 72.3387 431.674 71.1013 430.479 70.12C429.327 69.096 427.791 68.584 425.871 68.584C424.079 68.584 422.479 69.0747 421.071 70.056C419.706 70.9947 418.703 72.2533 418.063 73.832L411.215 70.504C411.898 68.6693 412.964 67.0907 414.415 65.768C415.908 64.4027 417.658 63.336 419.663 62.568C421.668 61.8 423.844 61.416 426.191 61.416C429.05 61.416 431.567 61.9493 433.743 63.016C435.919 64.04 437.604 65.4907 438.799 67.368C440.036 69.2027 440.655 71.3573 440.655 73.832V97H432.719V91.048L434.511 90.92C433.615 92.4133 432.548 93.672 431.311 94.696C430.074 95.6773 428.666 96.4453 427.087 97C425.508 97.512 423.759 97.768 421.839 97.768ZM448.404 97V62.184H456.276V69.928L455.636 68.776C456.447 66.1733 457.705 64.36 459.412 63.336C461.161 62.312 463.252 61.8 465.684 61.8H467.732V69.224H464.724C462.335 69.224 460.415 69.9707 458.964 71.464C457.513 72.9147 456.788 74.9627 456.788 77.608V97H448.404ZM472.342 97V62.184H480.214V69.032L479.574 67.816C480.384 65.7253 481.707 64.1467 483.542 63.08C485.419 61.9707 487.595 61.416 490.07 61.416C492.63 61.416 494.891 61.9707 496.854 63.08C498.859 64.1893 500.416 65.7467 501.526 67.752C502.635 69.7147 503.19 71.9973 503.19 74.6V97H494.806V76.584C494.806 75.048 494.507 73.7253 493.91 72.616C493.312 71.5067 492.48 70.6533 491.414 70.056C490.39 69.416 489.174 69.096 487.766 69.096C486.4 69.096 485.184 69.416 484.118 70.056C483.051 70.6533 482.219 71.5067 481.622 72.616C481.024 73.7253 480.726 75.048 480.726 76.584V97H472.342ZM510.279 97V62.184H518.663V97H510.279ZM510.279 58.28V49.32H518.663V58.28H510.279ZM526.404 97V62.184H534.276V69.032L533.636 67.816C534.447 65.7253 535.769 64.1467 537.604 63.08C539.481 61.9707 541.657 61.416 544.132 61.416C546.692 61.416 548.953 61.9707 550.916 63.08C552.921 64.1893 554.479 65.7467 555.588 67.752C556.697 69.7147 557.252 71.9973 557.252 74.6V97H548.868V76.584C548.868 75.048 548.569 73.7253 547.972 72.616C547.375 71.5067 546.543 70.6533 545.476 70.056C544.452 69.416 543.236 69.096 541.828 69.096C540.463 69.096 539.247 69.416 538.18 70.056C537.113 70.6533 536.281 71.5067 535.684 72.616C535.087 73.7253 534.788 75.048 534.788 76.584V97H526.404ZM581.238 111.08C578.635 111.08 576.224 110.653 574.006 109.8C571.787 108.947 569.867 107.752 568.246 106.216C566.667 104.723 565.515 102.952 564.79 100.904L572.598 97.96C573.11 99.5813 574.112 100.883 575.606 101.864C577.142 102.888 579.019 103.4 581.238 103.4C582.944 103.4 584.438 103.08 585.718 102.44C587.04 101.8 588.064 100.861 588.79 99.624C589.515 98.4293 589.878 96.9787 589.878 95.272V87.336L591.478 89.256C590.283 91.3467 588.683 92.9253 586.678 93.992C584.672 95.0587 582.39 95.592 579.83 95.592C576.587 95.592 573.686 94.8453 571.126 93.352C568.566 91.8587 566.56 89.8107 565.11 87.208C563.659 84.6053 562.934 81.6827 562.934 78.44C562.934 75.1547 563.659 72.232 565.11 69.672C566.56 67.112 568.544 65.1067 571.062 63.656C573.579 62.1627 576.438 61.416 579.638 61.416C582.24 61.416 584.523 61.9707 586.486 63.08C588.491 64.1467 590.155 65.704 591.478 67.752L590.326 69.864V62.184H598.262V95.272C598.262 98.3013 597.515 101.011 596.022 103.4C594.571 105.789 592.566 107.667 590.006 109.032C587.488 110.397 584.566 111.08 581.238 111.08ZM580.854 87.848C582.646 87.848 584.203 87.464 585.526 86.696C586.891 85.8853 587.958 84.776 588.726 83.368C589.494 81.96 589.878 80.3387 589.878 78.504C589.878 76.712 589.472 75.112 588.662 73.704C587.894 72.2533 586.827 71.1227 585.462 70.312C584.139 69.5013 582.603 69.096 580.854 69.096C579.104 69.096 577.526 69.5013 576.118 70.312C574.71 71.1227 573.6 72.2533 572.79 73.704C572.022 75.112 571.638 76.712 571.638 78.504C571.638 80.296 572.022 81.896 572.79 83.304C573.6 84.712 574.688 85.8213 576.054 86.632C577.462 87.4427 579.062 87.848 580.854 87.848ZM73.2018 178V130.32H81.5218L99.3778 154.576H95.4098L112.882 130.32H121.202V178H112.434V140.24L115.826 141.072L97.7138 165.2H96.6898L79.0258 141.072L81.9058 140.24V178H73.2018ZM146.647 178.768C143.233 178.768 140.119 177.979 137.303 176.4C134.529 174.821 132.311 172.667 130.647 169.936C129.025 167.205 128.215 164.091 128.215 160.592C128.215 157.093 129.025 153.979 130.647 151.248C132.311 148.517 134.529 146.363 137.303 144.784C140.076 143.205 143.191 142.416 146.647 142.416C150.06 142.416 153.153 143.205 155.927 144.784C158.7 146.363 160.897 148.517 162.519 151.248C164.183 153.936 165.015 157.051 165.015 160.592C165.015 164.091 164.183 167.205 162.519 169.936C160.855 172.667 158.636 174.821 155.863 176.4C153.089 177.979 150.017 178.768 146.647 178.768ZM146.647 171.088C148.524 171.088 150.167 170.64 151.575 169.744C153.025 168.848 154.156 167.611 154.967 166.032C155.82 164.411 156.247 162.597 156.247 160.592C156.247 158.544 155.82 156.752 154.967 155.216C154.156 153.637 153.025 152.4 151.575 151.504C150.167 150.565 148.524 150.096 146.647 150.096C144.727 150.096 143.041 150.565 141.591 151.504C140.14 152.4 138.988 153.637 138.135 155.216C137.324 156.752 136.919 158.544 136.919 160.592C136.919 162.597 137.324 164.411 138.135 166.032C138.988 167.611 140.14 168.848 141.591 169.744C143.041 170.64 144.727 171.088 146.647 171.088ZM171.373 178V143.184H179.245V150.928L178.605 149.776C179.415 147.173 180.674 145.36 182.381 144.336C184.13 143.312 186.221 142.8 188.653 142.8H190.701V150.224H187.693C185.303 150.224 183.383 150.971 181.933 152.464C180.482 153.915 179.757 155.963 179.757 158.608V178H171.373ZM211.822 178.768C208.238 178.768 205.102 177.957 202.414 176.336C199.726 174.715 197.636 172.517 196.142 169.744C194.649 166.971 193.902 163.899 193.902 160.528C193.902 157.029 194.649 153.936 196.142 151.248C197.678 148.517 199.748 146.363 202.35 144.784C204.996 143.205 207.94 142.416 211.182 142.416C213.913 142.416 216.302 142.864 218.35 143.76C220.441 144.656 222.212 145.893 223.662 147.472C225.113 149.051 226.222 150.864 226.99 152.912C227.758 154.917 228.142 157.093 228.142 159.44C228.142 160.037 228.1 160.656 228.014 161.296C227.972 161.936 227.865 162.491 227.694 162.96H200.814V156.56H222.958L218.99 159.568C219.374 157.605 219.268 155.856 218.67 154.32C218.116 152.784 217.177 151.568 215.854 150.672C214.574 149.776 213.017 149.328 211.182 149.328C209.433 149.328 207.876 149.776 206.51 150.672C205.145 151.525 204.1 152.805 203.374 154.512C202.692 156.176 202.436 158.203 202.606 160.592C202.436 162.725 202.713 164.624 203.438 166.288C204.206 167.909 205.316 169.168 206.766 170.064C208.26 170.96 209.966 171.408 211.886 171.408C213.806 171.408 215.428 171.003 216.75 170.192C218.116 169.381 219.182 168.293 219.95 166.928L226.734 170.256C226.052 171.92 224.985 173.392 223.534 174.672C222.084 175.952 220.356 176.955 218.35 177.68C216.388 178.405 214.212 178.768 211.822 178.768ZM246.577 178V130.32H278.257V138H255.281V150.224H276.977V157.904H255.281V170.32H278.257V178H246.577ZM280.799 178L292.959 160.528L280.735 143.184H290.591L300.127 157.264H295.711L305.247 143.184H315.039L302.879 160.528L314.975 178H305.183L295.775 163.984H300.063L290.655 178H280.799ZM319.623 190.8V143.184H327.495V150.096L326.727 148.368C327.921 146.491 329.543 145.04 331.591 144.016C333.639 142.949 336.007 142.416 338.695 142.416C341.98 142.416 344.945 143.227 347.591 144.848C350.236 146.469 352.327 148.645 353.863 151.376C355.441 154.107 356.231 157.179 356.231 160.592C356.231 163.963 355.463 167.035 353.927 169.808C352.391 172.581 350.3 174.779 347.655 176.4C345.009 177.979 342.001 178.768 338.631 178.768C336.113 178.768 333.788 178.277 331.655 177.296C329.564 176.272 327.9 174.821 326.663 172.944L328.007 171.28V190.8H319.623ZM337.671 171.088C339.591 171.088 341.297 170.64 342.791 169.744C344.284 168.848 345.436 167.611 346.247 166.032C347.1 164.453 347.527 162.64 347.527 160.592C347.527 158.544 347.1 156.752 346.247 155.216C345.436 153.637 344.284 152.4 342.791 151.504C341.297 150.565 339.591 150.096 337.671 150.096C335.836 150.096 334.172 150.544 332.679 151.44C331.228 152.336 330.076 153.595 329.223 155.216C328.412 156.795 328.007 158.587 328.007 160.592C328.007 162.64 328.412 164.453 329.223 166.032C330.076 167.611 331.228 168.848 332.679 169.744C334.172 170.64 335.836 171.088 337.671 171.088ZM362.623 178V129.552H371.007V178H362.623ZM395.772 178.768C392.358 178.768 389.244 177.979 386.428 176.4C383.654 174.821 381.436 172.667 379.772 169.936C378.15 167.205 377.34 164.091 377.34 160.592C377.34 157.093 378.15 153.979 379.772 151.248C381.436 148.517 383.654 146.363 386.428 144.784C389.201 143.205 392.316 142.416 395.772 142.416C399.185 142.416 402.278 143.205 405.052 144.784C407.825 146.363 410.022 148.517 411.644 151.248C413.308 153.936 414.14 157.051 414.14 160.592C414.14 164.091 413.308 167.205 411.644 169.936C409.98 172.667 407.761 174.821 404.988 176.4C402.214 177.979 399.142 178.768 395.772 178.768ZM395.772 171.088C397.649 171.088 399.292 170.64 400.7 169.744C402.15 168.848 403.281 167.611 404.092 166.032C404.945 164.411 405.372 162.597 405.372 160.592C405.372 158.544 404.945 156.752 404.092 155.216C403.281 153.637 402.15 152.4 400.7 151.504C399.292 150.565 397.649 150.096 395.772 150.096C393.852 150.096 392.166 150.565 390.716 151.504C389.265 152.4 388.113 153.637 387.26 155.216C386.449 156.752 386.044 158.544 386.044 160.592C386.044 162.597 386.449 164.411 387.26 166.032C388.113 167.611 389.265 168.848 390.716 169.744C392.166 170.64 393.852 171.088 395.772 171.088ZM433.746 178.768C430.034 178.768 426.791 177.893 424.018 176.144C421.287 174.352 419.41 171.941 418.386 168.912L424.658 165.904C425.554 167.867 426.791 169.403 428.37 170.512C429.991 171.621 431.783 172.176 433.746 172.176C435.282 172.176 436.498 171.835 437.394 171.152C438.29 170.469 438.738 169.573 438.738 168.464C438.738 167.781 438.546 167.227 438.162 166.8C437.82 166.331 437.33 165.947 436.69 165.648C436.092 165.307 435.431 165.029 434.706 164.816L429.01 163.216C426.066 162.363 423.826 161.061 422.29 159.312C420.796 157.563 420.05 155.493 420.05 153.104C420.05 150.971 420.583 149.115 421.65 147.536C422.759 145.915 424.274 144.656 426.194 143.76C428.156 142.864 430.396 142.416 432.914 142.416C436.199 142.416 439.1 143.205 441.618 144.784C444.135 146.363 445.927 148.581 446.994 151.44L440.594 154.448C439.996 152.869 438.994 151.611 437.586 150.672C436.178 149.733 434.599 149.264 432.85 149.264C431.442 149.264 430.332 149.584 429.522 150.224C428.711 150.864 428.306 151.696 428.306 152.72C428.306 153.36 428.476 153.915 428.818 154.384C429.159 154.853 429.628 155.237 430.226 155.536C430.866 155.835 431.591 156.112 432.402 156.368L437.97 158.032C440.828 158.885 443.026 160.165 444.562 161.872C446.14 163.579 446.93 165.669 446.93 168.144C446.93 170.235 446.375 172.091 445.266 173.712C444.156 175.291 442.62 176.528 440.658 177.424C438.695 178.32 436.391 178.768 433.746 178.768ZM453.373 178V143.184H461.757V178H453.373ZM453.373 139.28V130.32H461.757V139.28H453.373ZM479.994 178L466.298 143.184H475.45L485.37 170.576H481.978L491.962 143.184H501.114L487.418 178H479.994ZM521.635 178.768C518.051 178.768 514.915 177.957 512.227 176.336C509.539 174.715 507.448 172.517 505.955 169.744C504.461 166.971 503.715 163.899 503.715 160.528C503.715 157.029 504.461 153.936 505.955 151.248C507.491 148.517 509.56 146.363 512.163 144.784C514.808 143.205 517.752 142.416 520.995 142.416C523.725 142.416 526.115 142.864 528.163 143.76C530.253 144.656 532.024 145.893 533.475 147.472C534.925 149.051 536.035 150.864 536.803 152.912C537.571 154.917 537.955 157.093 537.955 159.44C537.955 160.037 537.912 160.656 537.827 161.296C537.784 161.936 537.677 162.491 537.507 162.96H510.627V156.56H532.771L528.803 159.568C529.187 157.605 529.08 155.856 528.483 154.32C527.928 152.784 526.989 151.568 525.667 150.672C524.387 149.776 522.829 149.328 520.995 149.328C519.245 149.328 517.688 149.776 516.323 150.672C514.957 151.525 513.912 152.805 513.187 154.512C512.504 156.176 512.248 158.203 512.419 160.592C512.248 162.725 512.525 164.624 513.251 166.288C514.019 167.909 515.128 169.168 516.579 170.064C518.072 170.96 519.779 171.408 521.699 171.408C523.619 171.408 525.24 171.003 526.563 170.192C527.928 169.381 528.995 168.293 529.763 166.928L536.547 170.256C535.864 171.92 534.797 173.392 533.347 174.672C531.896 175.952 530.168 176.955 528.163 177.68C526.2 178.405 524.024 178.768 521.635 178.768Z" fill="black"/>
</svg>
