<svg width="1919" height="705" viewBox="0 0 1919 705" fill="none" xmlns="http://www.w3.org/2000/svg">
<g clip-path="url(#clip0_5803_17066)">
<path d="M159.917 0H0V58.75H159.917V0Z" stroke="#146CB1" stroke-opacity="0.16" stroke-width="0.75"/>
<path d="M319.833 0H159.917V58.75H319.833V0Z" stroke="#146CB1" stroke-opacity="0.16" stroke-width="0.75"/>
<path d="M479.75 0H319.833V58.75H479.75V0Z" stroke="#146CB1" stroke-opacity="0.16" stroke-width="0.75"/>
<path d="M639.667 0H479.75V58.75H639.667V0Z" stroke="#146CB1" stroke-opacity="0.16" stroke-width="0.75"/>
<path d="M799.583 0H639.667V58.75H799.583V0Z" stroke="#146CB1" stroke-opacity="0.16" stroke-width="0.75"/>
<path d="M959.5 0H799.583V58.75H959.5V0Z" stroke="#146CB1" stroke-opacity="0.16" stroke-width="0.75"/>
<path d="M1119.42 0H959.5V58.75H1119.42V0Z" stroke="#146CB1" stroke-opacity="0.16" stroke-width="0.75"/>
<path d="M1279.33 0H1119.42V58.75H1279.33V0Z" stroke="#146CB1" stroke-opacity="0.16" stroke-width="0.75"/>
<path d="M1439.25 0H1279.33V58.75H1439.25V0Z" stroke="#146CB1" stroke-opacity="0.16" stroke-width="0.75"/>
<path d="M1599.17 0H1439.25V58.75H1599.17V0Z" stroke="#146CB1" stroke-opacity="0.16" stroke-width="0.75"/>
<path d="M1759.08 0H1599.17V58.75H1759.08V0Z" stroke="#146CB1" stroke-opacity="0.16" stroke-width="0.75"/>
<path d="M1919 0H1759.08V58.75H1919V0Z" stroke="#146CB1" stroke-opacity="0.16" stroke-width="0.75"/>
<path d="M2078.92 0H1919V58.75H2078.92V0Z" stroke="#146CB1" stroke-opacity="0.16" stroke-width="0.75"/>
<path d="M159.917 58.75H0V117.5H159.917V58.75Z" stroke="#146CB1" stroke-opacity="0.16" stroke-width="0.75"/>
<path d="M319.833 58.75H159.917V117.5H319.833V58.75Z" stroke="#146CB1" stroke-opacity="0.16" stroke-width="0.75"/>
<path d="M479.75 58.75H319.833V117.5H479.75V58.75Z" stroke="#146CB1" stroke-opacity="0.16" stroke-width="0.75"/>
<path d="M639.667 58.75H479.75V117.5H639.667V58.75Z" stroke="#146CB1" stroke-opacity="0.16" stroke-width="0.75"/>
<path d="M799.583 58.75H639.667V117.5H799.583V58.75Z" stroke="#146CB1" stroke-opacity="0.16" stroke-width="0.75"/>
<path d="M959.5 58.75H799.583V117.5H959.5V58.75Z" stroke="#146CB1" stroke-opacity="0.16" stroke-width="0.75"/>
<path d="M1119.42 58.75H959.5V117.5H1119.42V58.75Z" stroke="#146CB1" stroke-opacity="0.16" stroke-width="0.75"/>
<path d="M1279.33 58.75H1119.42V117.5H1279.33V58.75Z" stroke="#146CB1" stroke-opacity="0.16" stroke-width="0.75"/>
<path d="M1439.25 58.75H1279.33V117.5H1439.25V58.75Z" stroke="#146CB1" stroke-opacity="0.16" stroke-width="0.75"/>
<path d="M1599.17 58.75H1439.25V117.5H1599.17V58.75Z" stroke="#146CB1" stroke-opacity="0.16" stroke-width="0.75"/>
<path d="M1759.08 58.75H1599.17V117.5H1759.08V58.75Z" stroke="#146CB1" stroke-opacity="0.16" stroke-width="0.75"/>
<path d="M1919 58.75H1759.08V117.5H1919V58.75Z" stroke="#146CB1" stroke-opacity="0.16" stroke-width="0.75"/>
<path d="M2078.92 58.75H1919V117.5H2078.92V58.75Z" stroke="#146CB1" stroke-opacity="0.16" stroke-width="0.75"/>
<path d="M159.917 117.5H0V176.25H159.917V117.5Z" stroke="#146CB1" stroke-opacity="0.16" stroke-width="0.75"/>
<path d="M319.833 117.5H159.917V176.25H319.833V117.5Z" stroke="#146CB1" stroke-opacity="0.16" stroke-width="0.75"/>
<path d="M479.75 117.5H319.833V176.25H479.75V117.5Z" stroke="#146CB1" stroke-opacity="0.16" stroke-width="0.75"/>
<path d="M639.667 117.5H479.75V176.25H639.667V117.5Z" stroke="#146CB1" stroke-opacity="0.16" stroke-width="0.75"/>
<path d="M799.583 117.5H639.667V176.25H799.583V117.5Z" stroke="#146CB1" stroke-opacity="0.16" stroke-width="0.75"/>
<path d="M959.5 117.5H799.583V176.25H959.5V117.5Z" stroke="#146CB1" stroke-opacity="0.16" stroke-width="0.75"/>
<path d="M1119.42 117.5H959.5V176.25H1119.42V117.5Z" stroke="#146CB1" stroke-opacity="0.16" stroke-width="0.75"/>
<path d="M1279.33 117.5H1119.42V176.25H1279.33V117.5Z" stroke="#146CB1" stroke-opacity="0.16" stroke-width="0.75"/>
<path d="M1439.25 117.5H1279.33V176.25H1439.25V117.5Z" stroke="#146CB1" stroke-opacity="0.16" stroke-width="0.75"/>
<path d="M1599.17 117.5H1439.25V176.25H1599.17V117.5Z" stroke="#146CB1" stroke-opacity="0.16" stroke-width="0.75"/>
<path d="M1759.08 117.5H1599.17V176.25H1759.08V117.5Z" stroke="#146CB1" stroke-opacity="0.16" stroke-width="0.75"/>
<path d="M1919 117.5H1759.08V176.25H1919V117.5Z" stroke="#146CB1" stroke-opacity="0.16" stroke-width="0.75"/>
<path d="M2078.92 117.5H1919V176.25H2078.92V117.5Z" stroke="#146CB1" stroke-opacity="0.16" stroke-width="0.75"/>
<path d="M159.917 176.25H0V235H159.917V176.25Z" stroke="#146CB1" stroke-opacity="0.16" stroke-width="0.75"/>
<path d="M319.833 176.25H159.917V235H319.833V176.25Z" stroke="#146CB1" stroke-opacity="0.16" stroke-width="0.75"/>
<path d="M479.75 176.25H319.833V235H479.75V176.25Z" stroke="#146CB1" stroke-opacity="0.16" stroke-width="0.75"/>
<path d="M639.667 176.25H479.75V235H639.667V176.25Z" stroke="#146CB1" stroke-opacity="0.16" stroke-width="0.75"/>
<path d="M799.583 176.25H639.667V235H799.583V176.25Z" stroke="#146CB1" stroke-opacity="0.16" stroke-width="0.75"/>
<path d="M959.5 176.25H799.583V235H959.5V176.25Z" stroke="#146CB1" stroke-opacity="0.16" stroke-width="0.75"/>
<path d="M1119.42 176.25H959.5V235H1119.42V176.25Z" stroke="#146CB1" stroke-opacity="0.16" stroke-width="0.75"/>
<path d="M1279.33 176.25H1119.42V235H1279.33V176.25Z" stroke="#146CB1" stroke-opacity="0.16" stroke-width="0.75"/>
<path d="M1439.25 176.25H1279.33V235H1439.25V176.25Z" stroke="#146CB1" stroke-opacity="0.16" stroke-width="0.75"/>
<path d="M1599.17 176.25H1439.25V235H1599.17V176.25Z" stroke="#146CB1" stroke-opacity="0.16" stroke-width="0.75"/>
<path d="M1759.08 176.25H1599.17V235H1759.08V176.25Z" stroke="#146CB1" stroke-opacity="0.16" stroke-width="0.75"/>
<path d="M1919 176.25H1759.08V235H1919V176.25Z" stroke="#146CB1" stroke-opacity="0.16" stroke-width="0.75"/>
<path d="M2078.92 176.25H1919V235H2078.92V176.25Z" stroke="#146CB1" stroke-opacity="0.16" stroke-width="0.75"/>
<path d="M159.917 235H0V293.75H159.917V235Z" stroke="#146CB1" stroke-opacity="0.16" stroke-width="0.75"/>
<path d="M319.833 235H159.917V293.75H319.833V235Z" stroke="#146CB1" stroke-opacity="0.16" stroke-width="0.75"/>
<path d="M479.75 235H319.833V293.75H479.75V235Z" stroke="#146CB1" stroke-opacity="0.16" stroke-width="0.75"/>
<path d="M639.667 235H479.75V293.75H639.667V235Z" stroke="#146CB1" stroke-opacity="0.16" stroke-width="0.75"/>
<path d="M799.583 235H639.667V293.75H799.583V235Z" stroke="#146CB1" stroke-opacity="0.16" stroke-width="0.75"/>
<path d="M959.5 235H799.583V293.75H959.5V235Z" stroke="#146CB1" stroke-opacity="0.16" stroke-width="0.75"/>
<path d="M1119.42 235H959.5V293.75H1119.42V235Z" stroke="#146CB1" stroke-opacity="0.16" stroke-width="0.75"/>
<path d="M1279.33 235H1119.42V293.75H1279.33V235Z" stroke="#146CB1" stroke-opacity="0.16" stroke-width="0.75"/>
<path d="M1439.25 235H1279.33V293.75H1439.25V235Z" stroke="#146CB1" stroke-opacity="0.16" stroke-width="0.75"/>
<path d="M1599.17 235H1439.25V293.75H1599.17V235Z" stroke="#146CB1" stroke-opacity="0.16" stroke-width="0.75"/>
<path d="M1759.08 235H1599.17V293.75H1759.08V235Z" stroke="#146CB1" stroke-opacity="0.16" stroke-width="0.75"/>
<path d="M1919 235H1759.08V293.75H1919V235Z" stroke="#146CB1" stroke-opacity="0.16" stroke-width="0.75"/>
<path d="M2078.92 235H1919V293.75H2078.92V235Z" stroke="#146CB1" stroke-opacity="0.16" stroke-width="0.75"/>
<path d="M159.917 293.75H0V352.5H159.917V293.75Z" stroke="#146CB1" stroke-opacity="0.16" stroke-width="0.75"/>
<path d="M319.833 293.75H159.917V352.5H319.833V293.75Z" stroke="#146CB1" stroke-opacity="0.16" stroke-width="0.75"/>
<path d="M479.75 293.75H319.833V352.5H479.75V293.75Z" stroke="#146CB1" stroke-opacity="0.16" stroke-width="0.75"/>
<path d="M639.667 293.75H479.75V352.5H639.667V293.75Z" stroke="#146CB1" stroke-opacity="0.16" stroke-width="0.75"/>
<path d="M799.583 293.75H639.667V352.5H799.583V293.75Z" stroke="#146CB1" stroke-opacity="0.16" stroke-width="0.75"/>
<path d="M959.5 293.75H799.583V352.5H959.5V293.75Z" stroke="#146CB1" stroke-opacity="0.16" stroke-width="0.75"/>
<path d="M1119.42 293.75H959.5V352.5H1119.42V293.75Z" stroke="#146CB1" stroke-opacity="0.16" stroke-width="0.75"/>
<path d="M1279.33 293.75H1119.42V352.5H1279.33V293.75Z" stroke="#146CB1" stroke-opacity="0.16" stroke-width="0.75"/>
<path d="M1439.25 293.75H1279.33V352.5H1439.25V293.75Z" stroke="#146CB1" stroke-opacity="0.16" stroke-width="0.75"/>
<path d="M1599.17 293.75H1439.25V352.5H1599.17V293.75Z" stroke="#146CB1" stroke-opacity="0.16" stroke-width="0.75"/>
<path d="M1759.08 293.75H1599.17V352.5H1759.08V293.75Z" stroke="#146CB1" stroke-opacity="0.16" stroke-width="0.75"/>
<path d="M1919 293.75H1759.08V352.5H1919V293.75Z" stroke="#146CB1" stroke-opacity="0.16" stroke-width="0.75"/>
<path d="M2078.92 293.75H1919V352.5H2078.92V293.75Z" stroke="#146CB1" stroke-opacity="0.16" stroke-width="0.75"/>
<path d="M159.917 352.5H0V411.25H159.917V352.5Z" stroke="#146CB1" stroke-opacity="0.16" stroke-width="0.75"/>
<path d="M319.833 352.5H159.917V411.25H319.833V352.5Z" stroke="#146CB1" stroke-opacity="0.16" stroke-width="0.75"/>
<path d="M479.75 352.5H319.833V411.25H479.75V352.5Z" stroke="#146CB1" stroke-opacity="0.16" stroke-width="0.75"/>
<path d="M639.667 352.5H479.75V411.25H639.667V352.5Z" stroke="#146CB1" stroke-opacity="0.16" stroke-width="0.75"/>
<path d="M799.583 352.5H639.667V411.25H799.583V352.5Z" stroke="#146CB1" stroke-opacity="0.16" stroke-width="0.75"/>
<path d="M959.5 352.5H799.583V411.25H959.5V352.5Z" stroke="#146CB1" stroke-opacity="0.16" stroke-width="0.75"/>
<path d="M1119.42 352.5H959.5V411.25H1119.42V352.5Z" stroke="#146CB1" stroke-opacity="0.16" stroke-width="0.75"/>
<path d="M1279.33 352.5H1119.42V411.25H1279.33V352.5Z" stroke="#146CB1" stroke-opacity="0.16" stroke-width="0.75"/>
<path d="M1439.25 352.5H1279.33V411.25H1439.25V352.5Z" stroke="#146CB1" stroke-opacity="0.16" stroke-width="0.75"/>
<path d="M1599.17 352.5H1439.25V411.25H1599.17V352.5Z" stroke="#146CB1" stroke-opacity="0.16" stroke-width="0.75"/>
<path d="M1759.08 352.5H1599.17V411.25H1759.08V352.5Z" stroke="#146CB1" stroke-opacity="0.16" stroke-width="0.75"/>
<path d="M1919 352.5H1759.08V411.25H1919V352.5Z" stroke="#146CB1" stroke-opacity="0.16" stroke-width="0.75"/>
<path d="M2078.92 352.5H1919V411.25H2078.92V352.5Z" stroke="#146CB1" stroke-opacity="0.16" stroke-width="0.75"/>
<path d="M159.917 411.25H0V470H159.917V411.25Z" stroke="#146CB1" stroke-opacity="0.16" stroke-width="0.75"/>
<path d="M319.833 411.25H159.917V470H319.833V411.25Z" stroke="#146CB1" stroke-opacity="0.16" stroke-width="0.75"/>
<path d="M479.75 411.25H319.833V470H479.75V411.25Z" stroke="#146CB1" stroke-opacity="0.16" stroke-width="0.75"/>
<path d="M639.667 411.25H479.75V470H639.667V411.25Z" stroke="#146CB1" stroke-opacity="0.16" stroke-width="0.75"/>
<path d="M799.583 411.25H639.667V470H799.583V411.25Z" stroke="#146CB1" stroke-opacity="0.16" stroke-width="0.75"/>
<path d="M959.5 411.25H799.583V470H959.5V411.25Z" stroke="#146CB1" stroke-opacity="0.16" stroke-width="0.75"/>
<path d="M1119.42 411.25H959.5V470H1119.42V411.25Z" stroke="#146CB1" stroke-opacity="0.16" stroke-width="0.75"/>
<path d="M1279.33 411.25H1119.42V470H1279.33V411.25Z" stroke="#146CB1" stroke-opacity="0.16" stroke-width="0.75"/>
<path d="M1439.25 411.25H1279.33V470H1439.25V411.25Z" stroke="#146CB1" stroke-opacity="0.16" stroke-width="0.75"/>
<path d="M1599.17 411.25H1439.25V470H1599.17V411.25Z" stroke="#146CB1" stroke-opacity="0.16" stroke-width="0.75"/>
<path d="M1759.08 411.25H1599.17V470H1759.08V411.25Z" stroke="#146CB1" stroke-opacity="0.16" stroke-width="0.75"/>
<path d="M1919 411.25H1759.08V470H1919V411.25Z" stroke="#146CB1" stroke-opacity="0.16" stroke-width="0.75"/>
<path d="M2078.92 411.25H1919V470H2078.92V411.25Z" stroke="#146CB1" stroke-opacity="0.16" stroke-width="0.75"/>
<path d="M159.917 470H0V528.75H159.917V470Z" stroke="#146CB1" stroke-opacity="0.16" stroke-width="0.75"/>
<path d="M319.833 470H159.917V528.75H319.833V470Z" stroke="#146CB1" stroke-opacity="0.16" stroke-width="0.75"/>
<path d="M479.75 470H319.833V528.75H479.75V470Z" stroke="#146CB1" stroke-opacity="0.16" stroke-width="0.75"/>
<path d="M639.667 470H479.75V528.75H639.667V470Z" stroke="#146CB1" stroke-opacity="0.16" stroke-width="0.75"/>
<path d="M799.583 470H639.667V528.75H799.583V470Z" stroke="#146CB1" stroke-opacity="0.16" stroke-width="0.75"/>
<path d="M959.5 470H799.583V528.75H959.5V470Z" stroke="#146CB1" stroke-opacity="0.16" stroke-width="0.75"/>
<path d="M1119.42 470H959.5V528.75H1119.42V470Z" stroke="#146CB1" stroke-opacity="0.16" stroke-width="0.75"/>
<path d="M1279.33 470H1119.42V528.75H1279.33V470Z" stroke="#146CB1" stroke-opacity="0.16" stroke-width="0.75"/>
<path d="M1439.25 470H1279.33V528.75H1439.25V470Z" stroke="#146CB1" stroke-opacity="0.16" stroke-width="0.75"/>
<path d="M1599.17 470H1439.25V528.75H1599.17V470Z" stroke="#146CB1" stroke-opacity="0.16" stroke-width="0.75"/>
<path d="M1759.08 470H1599.17V528.75H1759.08V470Z" stroke="#146CB1" stroke-opacity="0.16" stroke-width="0.75"/>
<path d="M1919 470H1759.08V528.75H1919V470Z" stroke="#146CB1" stroke-opacity="0.16" stroke-width="0.75"/>
<path d="M2078.92 470H1919V528.75H2078.92V470Z" stroke="#146CB1" stroke-opacity="0.16" stroke-width="0.75"/>
<path d="M159.917 528.75H0V587.5H159.917V528.75Z" stroke="#146CB1" stroke-opacity="0.16" stroke-width="0.75"/>
<path d="M319.833 528.75H159.917V587.5H319.833V528.75Z" stroke="#146CB1" stroke-opacity="0.16" stroke-width="0.75"/>
<path d="M479.75 528.75H319.833V587.5H479.75V528.75Z" stroke="#146CB1" stroke-opacity="0.16" stroke-width="0.75"/>
<path d="M639.667 528.75H479.75V587.5H639.667V528.75Z" stroke="#146CB1" stroke-opacity="0.16" stroke-width="0.75"/>
<path d="M799.583 528.75H639.667V587.5H799.583V528.75Z" stroke="#146CB1" stroke-opacity="0.16" stroke-width="0.75"/>
<path d="M959.5 528.75H799.583V587.5H959.5V528.75Z" stroke="#146CB1" stroke-opacity="0.16" stroke-width="0.75"/>
<path d="M1119.42 528.75H959.5V587.5H1119.42V528.75Z" stroke="#146CB1" stroke-opacity="0.16" stroke-width="0.75"/>
<path d="M1279.33 528.75H1119.42V587.5H1279.33V528.75Z" stroke="#146CB1" stroke-opacity="0.16" stroke-width="0.75"/>
<path d="M1439.25 528.75H1279.33V587.5H1439.25V528.75Z" stroke="#146CB1" stroke-opacity="0.16" stroke-width="0.75"/>
<path d="M1599.17 528.75H1439.25V587.5H1599.17V528.75Z" stroke="#146CB1" stroke-opacity="0.16" stroke-width="0.75"/>
<path d="M1759.08 528.75H1599.17V587.5H1759.08V528.75Z" stroke="#146CB1" stroke-opacity="0.16" stroke-width="0.75"/>
<path d="M1919 528.75H1759.08V587.5H1919V528.75Z" stroke="#146CB1" stroke-opacity="0.16" stroke-width="0.75"/>
<path d="M2078.92 528.75H1919V587.5H2078.92V528.75Z" stroke="#146CB1" stroke-opacity="0.16" stroke-width="0.75"/>
<path d="M159.917 587.5H0V646.25H159.917V587.5Z" stroke="#146CB1" stroke-opacity="0.16" stroke-width="0.75"/>
<path d="M319.833 587.5H159.917V646.25H319.833V587.5Z" stroke="#146CB1" stroke-opacity="0.16" stroke-width="0.75"/>
<path d="M479.75 587.5H319.833V646.25H479.75V587.5Z" stroke="#146CB1" stroke-opacity="0.16" stroke-width="0.75"/>
<path d="M639.667 587.5H479.75V646.25H639.667V587.5Z" stroke="#146CB1" stroke-opacity="0.16" stroke-width="0.75"/>
<path d="M799.583 587.5H639.667V646.25H799.583V587.5Z" stroke="#146CB1" stroke-opacity="0.16" stroke-width="0.75"/>
<path d="M959.5 587.5H799.583V646.25H959.5V587.5Z" stroke="#146CB1" stroke-opacity="0.16" stroke-width="0.75"/>
<path d="M1119.42 587.5H959.5V646.25H1119.42V587.5Z" stroke="#146CB1" stroke-opacity="0.16" stroke-width="0.75"/>
<path d="M1279.33 587.5H1119.42V646.25H1279.33V587.5Z" stroke="#146CB1" stroke-opacity="0.16" stroke-width="0.75"/>
<path d="M1439.25 587.5H1279.33V646.25H1439.25V587.5Z" stroke="#146CB1" stroke-opacity="0.16" stroke-width="0.75"/>
<path d="M1599.17 587.5H1439.25V646.25H1599.17V587.5Z" stroke="#146CB1" stroke-opacity="0.16" stroke-width="0.75"/>
<path d="M1759.08 587.5H1599.17V646.25H1759.08V587.5Z" stroke="#146CB1" stroke-opacity="0.16" stroke-width="0.75"/>
<path d="M1919 587.5H1759.08V646.25H1919V587.5Z" stroke="#146CB1" stroke-opacity="0.16" stroke-width="0.75"/>
<path d="M2078.92 587.5H1919V646.25H2078.92V587.5Z" stroke="#146CB1" stroke-opacity="0.16" stroke-width="0.75"/>
<path d="M159.917 646.25H0V705H159.917V646.25Z" stroke="#146CB1" stroke-opacity="0.16" stroke-width="0.75"/>
<path d="M319.833 646.25H159.917V705H319.833V646.25Z" stroke="#146CB1" stroke-opacity="0.16" stroke-width="0.75"/>
<path d="M479.75 646.25H319.833V705H479.75V646.25Z" stroke="#146CB1" stroke-opacity="0.16" stroke-width="0.75"/>
<path d="M639.667 646.25H479.75V705H639.667V646.25Z" stroke="#146CB1" stroke-opacity="0.16" stroke-width="0.75"/>
<path d="M799.583 646.25H639.667V705H799.583V646.25Z" stroke="#146CB1" stroke-opacity="0.16" stroke-width="0.75"/>
<path d="M959.5 646.25H799.583V705H959.5V646.25Z" stroke="#146CB1" stroke-opacity="0.16" stroke-width="0.75"/>
<path d="M1119.42 646.25H959.5V705H1119.42V646.25Z" stroke="#146CB1" stroke-opacity="0.16" stroke-width="0.75"/>
<path d="M1279.33 646.25H1119.42V705H1279.33V646.25Z" stroke="#146CB1" stroke-opacity="0.16" stroke-width="0.75"/>
<path d="M1439.25 646.25H1279.33V705H1439.25V646.25Z" stroke="#146CB1" stroke-opacity="0.16" stroke-width="0.75"/>
<path d="M1599.17 646.25H1439.25V705H1599.17V646.25Z" stroke="#146CB1" stroke-opacity="0.16" stroke-width="0.75"/>
<path d="M1759.08 646.25H1599.17V705H1759.08V646.25Z" stroke="#146CB1" stroke-opacity="0.16" stroke-width="0.75"/>
<path d="M1919 646.25H1759.08V705H1919V646.25Z" stroke="#146CB1" stroke-opacity="0.16" stroke-width="0.75"/>
<path d="M2078.92 646.25H1919V705H2078.92V646.25Z" stroke="#146CB1" stroke-opacity="0.16" stroke-width="0.75"/>
<path d="M159.917 705H0V763.75H159.917V705Z" stroke="#146CB1" stroke-opacity="0.16" stroke-width="0.75"/>
<path d="M319.833 705H159.917V763.75H319.833V705Z" stroke="#146CB1" stroke-opacity="0.16" stroke-width="0.75"/>
<path d="M479.75 705H319.833V763.75H479.75V705Z" stroke="#146CB1" stroke-opacity="0.16" stroke-width="0.75"/>
<path d="M639.667 705H479.75V763.75H639.667V705Z" stroke="#146CB1" stroke-opacity="0.16" stroke-width="0.75"/>
<path d="M799.583 705H639.667V763.75H799.583V705Z" stroke="#146CB1" stroke-opacity="0.16" stroke-width="0.75"/>
<path d="M959.5 705H799.583V763.75H959.5V705Z" stroke="#146CB1" stroke-opacity="0.16" stroke-width="0.75"/>
<path d="M1119.42 705H959.5V763.75H1119.42V705Z" stroke="#146CB1" stroke-opacity="0.16" stroke-width="0.75"/>
<path d="M1279.33 705H1119.42V763.75H1279.33V705Z" stroke="#146CB1" stroke-opacity="0.16" stroke-width="0.75"/>
<path d="M1439.25 705H1279.33V763.75H1439.25V705Z" stroke="#146CB1" stroke-opacity="0.16" stroke-width="0.75"/>
<path d="M1599.17 705H1439.25V763.75H1599.17V705Z" stroke="#146CB1" stroke-opacity="0.16" stroke-width="0.75"/>
<path d="M1759.08 705H1599.17V763.75H1759.08V705Z" stroke="#146CB1" stroke-opacity="0.16" stroke-width="0.75"/>
<path d="M1919 705H1759.08V763.75H1919V705Z" stroke="#146CB1" stroke-opacity="0.16" stroke-width="0.75"/>
<path d="M2078.92 705H1919V763.75H2078.92V705Z" stroke="#146CB1" stroke-opacity="0.16" stroke-width="0.75"/>
<rect width="720" height="1920" transform="matrix(0 -1 -1 0 1920 720)" fill="url(#paint0_linear_5803_17066)"/>
</g>
<defs>
<linearGradient id="paint0_linear_5803_17066" x1="2.75129e-05" y1="1028.38" x2="251.067" y2="1034.77" gradientUnits="userSpaceOnUse">
<stop stop-color="white"/>
<stop offset="1" stop-color="white" stop-opacity="0"/>
</linearGradient>
<clipPath id="clip0_5803_17066">
<rect width="1919" height="705" fill="white"/>
</clipPath>
</defs>
</svg>
