<svg width="111" height="111" viewBox="0 0 111 111" fill="none" xmlns="http://www.w3.org/2000/svg">
<path d="M30.2605 90.0063C28.9489 92.2196 34.1133 95.0887 52.2299 102.303C71.4121 109.926 75.9208 110.91 76.4946 107.877C77.2324 103.696 32.4738 86.4813 30.2605 90.0063Z" fill="#016680"/>
<path d="M56.9841 2.86656C50.0981 -0.576388 48.6225 0.161375 36.5722 13.0315C24.1119 26.3115 22.3085 29.1807 24.6038 31.7219C28.7845 36.3125 33.2112 33.8533 49.4423 18.196C61.4107 6.63743 62.0665 5.4078 56.9841 2.86656Z" fill="#016680"/>
<path d="M83.2166 45.5759C78.2981 43.0347 76.0028 43.1167 67.2314 46.0678C41.2452 54.9211 21.981 59.1838 31.6541 63.9384C35.5889 65.9058 40.5894 64.7581 71.3302 55.413C88.2991 50.1666 89.7746 49.0189 83.2166 45.5759Z" fill="#016680"/>
</svg>
