<svg width="50" height="50" viewBox="0 0 50 50" fill="none" xmlns="http://www.w3.org/2000/svg">
<path opacity="0.2" d="M21.0938 14.0625V28.125H7.8125C7.3981 28.125 7.00067 27.9604 6.70765 27.6674C6.41462 27.3743 6.25 26.9769 6.25 26.5625V14.0625C6.25 13.6481 6.41462 13.2507 6.70765 12.9576C7.00067 12.6646 7.3981 12.5 7.8125 12.5H19.5312C19.9457 12.5 20.3431 12.6646 20.6361 12.9576C20.9291 13.2507 21.0938 13.6481 21.0938 14.0625ZM42.1875 12.5H30.4688C30.0543 12.5 29.6569 12.6646 29.3639 12.9576C29.0709 13.2507 28.9062 13.6481 28.9062 14.0625V26.5625C28.9062 26.9769 29.0709 27.3743 29.3639 27.6674C29.6569 27.9604 30.0543 28.125 30.4688 28.125H43.75V14.0625C43.75 13.6481 43.5854 13.2507 43.2924 12.9576C42.9993 12.6646 42.6019 12.5 42.1875 12.5Z" fill="#146CB1"/>
<path d="M19.5312 10.9375H7.8125C6.9837 10.9375 6.18884 11.2667 5.60279 11.8528C5.01674 12.4388 4.6875 13.2337 4.6875 14.0625V26.5625C4.6875 27.3913 5.01674 28.1862 5.60279 28.7722C6.18884 29.3583 6.9837 29.6875 7.8125 29.6875H19.5312V31.25C19.5312 32.9076 18.8728 34.4973 17.7007 35.6694C16.5286 36.8415 14.9389 37.5 13.2812 37.5C12.8668 37.5 12.4694 37.6646 12.1764 37.9576C11.8834 38.2507 11.7188 38.6481 11.7188 39.0625C11.7188 39.4769 11.8834 39.8743 12.1764 40.1674C12.4694 40.4604 12.8668 40.625 13.2812 40.625C15.7669 40.6224 18.1499 39.6339 19.9075 37.8763C21.6651 36.1187 22.6537 33.7356 22.6562 31.25V14.0625C22.6562 13.2337 22.327 12.4388 21.741 11.8528C21.1549 11.2667 20.3601 10.9375 19.5312 10.9375ZM19.5312 26.5625H7.8125V14.0625H19.5312V26.5625ZM42.1875 10.9375H30.4688C29.6399 10.9375 28.8451 11.2667 28.259 11.8528C27.673 12.4388 27.3438 13.2337 27.3438 14.0625V26.5625C27.3438 27.3913 27.673 28.1862 28.259 28.7722C28.8451 29.3583 29.6399 29.6875 30.4688 29.6875H42.1875V31.25C42.1875 32.9076 41.529 34.4973 40.3569 35.6694C39.1848 36.8415 37.5951 37.5 35.9375 37.5C35.5231 37.5 35.1257 37.6646 34.8326 37.9576C34.5396 38.2507 34.375 38.6481 34.375 39.0625C34.375 39.4769 34.5396 39.8743 34.8326 40.1674C35.1257 40.4604 35.5231 40.625 35.9375 40.625C38.4231 40.6224 40.8062 39.6339 42.5638 37.8763C44.3214 36.1187 45.3099 33.7356 45.3125 31.25V14.0625C45.3125 13.2337 44.9833 12.4388 44.3972 11.8528C43.8112 11.2667 43.0163 10.9375 42.1875 10.9375ZM42.1875 26.5625H30.4688V14.0625H42.1875V26.5625Z" fill="#146CB1"/>
</svg>
